<?xml version="1.0" encoding="UTF-8"?><svg id="Livello_2" xmlns="http://www.w3.org/2000/svg" xmlns:xlink="http://www.w3.org/1999/xlink" viewBox="0 0 720.16 181.52"><defs><linearGradient id="Sfumatura_senza_nome_46" x1="0" y1="90.76" x2="181.52" y2="90.76" gradientUnits="userSpaceOnUse"><stop offset="0" stop-color="#009"/><stop offset="1" stop-color="blue"/></linearGradient><linearGradient id="Sfumatura_senza_nome_46-2" x1="189.85" y1="50.68" x2="729.64" y2="50.68" xlink:href="#Sfumatura_senza_nome_46"/><linearGradient id="Sfumatura_senza_nome_46-3" x1="197.85" y1="112.77" x2="737.64" y2="112.77" xlink:href="#Sfumatura_senza_nome_46"/><linearGradient id="Sfumatura_senza_nome_46-4" x1="189.85" y1="112.77" x2="729.64" y2="112.77" xlink:href="#Sfumatura_senza_nome_46"/><linearGradient id="Sfumatura_senza_nome_46-5" x1="192.85" y1="100.36" x2="732.64" y2="100.36" xlink:href="#Sfumatura_senza_nome_46"/><linearGradient id="Sfumatura_senza_nome_46-6" x1="189.85" y1="112" x2="729.64" y2="112" xlink:href="#Sfumatura_senza_nome_46"/><linearGradient id="Sfumatura_senza_nome_46-7" x1="199.85" y1="95.73" x2="739.64" y2="95.73" xlink:href="#Sfumatura_senza_nome_46"/><linearGradient id="Sfumatura_senza_nome_46-8" x1="189.85" y1="112.77" x2="729.64" y2="112.77" xlink:href="#Sfumatura_senza_nome_46"/><linearGradient id="Sfumatura_senza_nome_46-9" x1="189.85" y1="112.46" x2="729.64" y2="112.46" xlink:href="#Sfumatura_senza_nome_46"/></defs><g id="Livello_1-2"><path d="M90.76,0C16.24,0,0,16.24,0,90.76s16.24,90.76,90.76,90.76,90.76-16.24,90.76-90.76S165.28,0,90.76,0Z" style="fill:url(#Sfumatura_senza_nome_46);"/><polygon points="105.56 84.58 137.87 79.29 124.9 31.32 123.31 31.75 84.58 75.96 79.29 43.65 31.32 56.62 31.75 58.2 75.96 96.94 43.65 102.22 56.62 150.2 58.2 149.77 96.94 105.56 102.22 137.87 150.2 124.9 149.77 123.31 105.56 84.58" style="fill:#fff;"/><path d="M630.75,37.14c-7.65,0-13.77,5.97-13.77,13.62s6.43,13.46,13.77,13.46,13.77-5.97,13.77-13.46-6.27-13.62-13.77-13.62Z" style="fill:url(#Sfumatura_senza_nome_46-2);"/><path d="M340.22,72.75c-21.59,0-41.68,12.95-44.92,39.48-3.26,26.68,13.55,40.56,35.14,40.56s41.95-13.88,45.21-40.56c3.22-26.37-13.99-39.48-35.42-39.48ZM350.54,115.1c-4.97,16.93-14.46,33.49-25.14,31.45-10.83-2.07-9.78-20.4-4.86-37.18,4.88-16.63,13.9-32.62,24.72-30.56,10.68,2.04,10.19,19.5,5.27,36.28Z" style="fill:url(#Sfumatura_senza_nome_46-3);"/><path d="M478.4,72.75c-21.59,0-41.68,12.95-44.92,39.48-3.26,26.68,13.55,40.56,35.14,40.56s41.95-13.88,45.21-40.56c3.22-26.37-13.99-39.48-35.42-39.48ZM488.72,115.1c-4.97,16.93-14.46,33.49-25.14,31.45-10.83-2.07-9.78-20.4-4.86-37.18,4.88-16.63,13.9-32.62,24.72-30.56,10.68,2.04,10.19,19.5,5.27,36.28Z" style="fill:url(#Sfumatura_senza_nome_46-4);"/><path d="M415.83,47.92h-.93c-8.86,10.64-19.09,19.89-35.3,26.37l-.74,6.01h11.26l-5.9,48.27c-1.87,15.27,4.6,24.21,17.55,24.21s21.26-8.64,26.09-17.89c-4.77,2.47-9.21,3.39-12.44,3.39-6.32,0-10.19-3.7-9.19-11.88l5.64-46.11h20.97l.81-6.63h-20.97l3.15-25.76Z" style="fill:url(#Sfumatura_senza_nome_46-5);"/><path d="M575.12,72.75c-11.41,0-20.34,6.17-26.56,14.19l1.62-13.26h-25.75l-.06.46c.2,2.16,2.39,13.26,1.13,23.59l-3.6,29.46c-1.26,10.33-6.17,21.44-6.88,23.44l-.08.62h29.76l.08-.62c-.22-2.01-2.41-13.11-1.15-23.44l4.32-35.32c5.06-3.55,10.26-5.71,15.33-5.55,7.23.15,13.35,4.32,12.01,15.27l-3.13,25.6c-1.26,10.33-6.17,21.44-6.87,23.44l-.08.62h29.61l.08-.62c-.06-2.01-2.25-13.11-.99-23.44l3.49-28.53c2.17-17.73-8.71-25.91-22.28-25.91Z" style="fill:url(#Sfumatura_senza_nome_46-6);"/><path d="M259.47,91.1h-6.17l5.45-44.57h19.59c13.26,0,25.36,17.12,27.67,18.35h.77l3.02-24.68h-77.32l-.08.62c.22,2.01,1.54,14.74.28,25.07l-7.68,61.29c-1.26,10.33-5.32,21.44-6.02,23.44l-.08.62h27.05s3.23,0,3.23,0l-1.24-16.29,4.66-38.15h6.17c12.95,0,25.99,6.94,28.38,7.56h.62l2.54-20.82h-.62c-2.54.62-17.27,7.56-30.22,7.56Z" style="fill:url(#Sfumatura_senza_nome_46-7);"/><path d="M647.53,112.54c0,.08-.01.15-.02.23-.01.08-.02.15-.03.23-3.09,25.29,11.48,39.79,34.31,39.79,12.34,0,23.54-4.63,30.32-7.09l3.1-22.82h-.77c-6.66,9.1-19.49,19.08-30.91,19.08s-16.89-15.15-15.14-29.49c1.88-15.37,11.25-28.88,22.67-28.88s21.41,9.99,25.85,19.08h.77l2.48-22.82c-6.18-2.47-16.25-7.09-28.59-7.09-22.82,0-40.94,14.5-44.03,39.79Z" style="fill:url(#Sfumatura_senza_nome_46-8);"/><polygon points="641.55 73.68 615.41 73.68 615.78 89.15 615.75 90.26 610.33 134.66 610.08 135.77 605.92 151.25 633.32 151.25 632.97 134.66 638.4 90.26 642.8 73.68 641.55 73.68 641.55 73.68" style="fill:url(#Sfumatura_senza_nome_46-9);"/></g></svg>