<?xml version="1.0" encoding="UTF-8"?><svg id="Livello_2" xmlns="http://www.w3.org/2000/svg" viewBox="0 0 112.31 118.44"><g id="Livello_1-2"><path d="M64.05,14.41c-.44,0-8.06-.6-18.09,4.09C13.57,33.66,6.19,69.99,23.31,91.33c14.06,17.51,40.02,18.45,58,4.82,3.42-2.59,5.96-5.63,6.65-6.43,1.81-2.11,1.89-2.06,3.1-4.56-.15.1-14.31,11.17-33.22,9.14-22.35-2.41-27.65-22.4-18.37-39.42,5.33-9.78,19.34-24.04,25.54-22.58.94.22,2.17,2.18,1.37,3.89-2,4.28-4.68,5.18-9.11,9.37-.85.81-6.48,6.13-9.26,11.38-.72,1.36-.4,2.3.03,2.36.84.12,4.29-.46,10.14-4.26,19.98-12.96,23.5-27.81,16.48-36.46-1.24-1.52-6.08-4.05-10.61-4.16ZM67.93.12c2.24.57,7.91.18,16.51,6.73,6.33,4.82,12.23,19.45.72,36.13-7.79,11.29-19.53,18.38-21.58,19.48-8.66,4.62-17.63,6.58-18.88,7.34-.48.29-.28,1.05-.25,1.52.04.78,1.82,14.34,15.71,15.06,8.94.46,22.08-3.79,34.2-18.84,2.56-3.18,5.03-6.43,7.57-9.62.94-1.18,2.95-3.67,6.95-2.34,1.7.56,3.96,3.18,3.33,7.3-.08.56-1.71,18.17-16.78,35.55-22.05,25.43-58.07,26.29-80.09,4.51C-5.53,82.29-6.47,44.21,21.01,18.45,34.43,5.87,52.18-1,67.93.12Z" style="fill:#fff; fill-rule:evenodd;"/></g></svg>